<svg width="15" height="24" viewBox="0 0 15 24" fill="none" xmlns="http://www.w3.org/2000/svg">
<path fill-rule="evenodd" clip-rule="evenodd" d="M4.07457 9.57275C4.50339 10.5742 5.08742 11.0345 5.7949 11.0626C4.69185 11.8851 3.4981 12.385 2.25396 12.7044C1.47291 12.6547 0.725622 12.456 0 12.2578C1.8327 11.8966 3.19929 11.0113 4.07406 9.57275" fill="#7F1D1E"/>
<path d="M12.4388 11.1711C12.4388 11.3864 12.4388 11.5776 12.4388 11.7687C12.4388 16.0176 12.4429 17.5997 12.4328 21.8486C12.4313 22.5176 12.1698 23.0764 11.6266 23.5165C11.1987 23.8631 10.7392 24.0019 10.2015 23.9999C7.93496 23.9914 5.66789 23.9979 3.40133 23.9934C2.40965 23.9914 1.63666 23.2842 1.36959 22.3742C1.34439 22.2877 1.34893 22.1911 1.34893 22.0996C1.34641 18.0182 1.3454 16.6041 1.34137 12.5227C1.34137 12.3457 1.38219 12.244 1.58627 12.2918C1.85182 12.3537 2.11688 12.4312 2.38647 12.4624C2.59962 12.487 2.65354 12.5911 2.65303 12.7752C2.65152 13.3366 2.64446 13.8984 2.65656 14.4598C2.67218 15.1901 3.06875 15.6982 3.65026 16.0885C3.99442 16.3194 4.37991 16.3963 4.78959 16.3948C6.19145 16.3908 7.59381 16.3948 8.99567 16.3908C9.88607 16.3888 10.6878 15.8516 10.9942 15.0302C11.0743 14.8154 11.108 14.5735 11.1131 14.3431C11.1292 13.5976 11.1171 12.8517 11.1292 12.1062C11.1307 12.0066 11.1816 11.8668 11.2577 11.816C11.5928 11.5911 11.945 11.3915 12.2927 11.1852C12.3179 11.1701 12.3567 11.1777 12.4388 11.1711Z" fill="#C9DCBF"/>
<path d="M12.4367 8.77985C11.9918 8.56657 11.6154 8.39807 11.2536 8.20391C11.1815 8.16518 11.1306 8.02937 11.1251 7.9348C11.1079 7.64256 11.1195 7.3483 11.117 7.05505C11.1079 6.06916 10.3894 5.08428 9.29489 5.03348C7.95702 4.97161 6.61563 4.97362 5.27575 4.94898C4.72044 4.93841 4.16968 4.99827 3.67484 5.25631C3.44758 5.37502 3.25459 5.58276 3.08376 5.78195C2.72498 6.20045 2.64234 6.70144 2.65091 7.24569C2.67107 8.49414 2.65091 9.7431 2.65746 10.9921C2.65897 11.2254 2.56524 11.3708 2.3657 11.4669C2.11929 11.5856 1.8754 11.7098 1.62698 11.8235C1.43045 11.913 1.34529 11.8562 1.34328 11.6374C1.33975 11.2687 1.34328 10.9 1.34328 10.5313C1.34328 8.47804 1.3594 6.42428 1.33673 4.37103C1.32665 3.45959 1.96358 2.5748 2.89379 2.32028C3.10795 2.26143 3.33672 2.22974 3.55895 2.22874C5.77562 2.22069 7.9923 2.21817 10.209 2.22673C10.4639 2.22773 10.5496 2.15983 10.535 1.90279C10.5148 1.5522 10.5259 1.19909 10.534 0.846989C10.5441 0.414407 10.9346 0.025083 11.3685 0.00244788C12.0654 -0.0337683 12.4377 0.332921 12.4367 1.0331C12.4337 3.45556 12.4362 5.87752 12.4367 8.29998C12.4367 8.43881 12.4367 8.57814 12.4367 8.78085V8.77985Z" fill="#C9DCBF"/>
<path fill-rule="evenodd" clip-rule="evenodd" d="M8.88091 6.99048L14.052 9.59754C11.4181 13.0562 6.97716 13.1472 2.24701 12.7001C5.40951 11.9224 7.59897 9.9934 8.88091 6.99048Z" fill="#EC1D27"/>
</svg>
