<svg width="24" height="24" viewBox="0 0 24 24" fill="none" xmlns="http://www.w3.org/2000/svg">
<g clip-path="url(#clip0_230_129)">
<path d="M0 0H24V24H0V0Z" fill="#FFC403"/>
<path d="M10.6683 10.5834V13.3229H9.919V11.7863L9.41851 12.5268H9.02632L8.47608 11.7863V13.3229H7.7912V10.5834H8.48193L9.27217 11.6575L9.98047 10.5834H10.6683ZM10.8849 11.2039V10.5834H13.4429V11.2039H12.5473V13.3229H11.7834V11.2039H10.8849ZM16.2614 10.5834V13.3229H15.6322L14.3444 11.757V13.3229H13.6595V10.5834H14.3414L15.5736 12.0936V10.5834H16.2614Z" fill="black"/>
<path d="M12 16.1853C9.78733 16.1853 7.7005 15.7726 6.12586 15.0204C4.47806 14.2331 3.57074 13.1619 3.57074 11.9999C3.57074 10.838 4.47806 9.76677 6.12586 8.97945C7.7005 8.22726 9.78733 7.81458 12 7.81458C14.2127 7.81458 16.2995 8.22726 17.8742 8.97945C19.522 9.76677 20.4293 10.838 20.4293 11.9999C20.4293 13.1619 19.522 14.2331 17.8742 15.0204C16.2995 15.7726 14.2127 16.1853 12 16.1853ZM12 8.43214C9.87513 8.43214 7.88489 8.82433 6.3922 9.53848C4.97269 10.2175 4.1883 11.0926 4.1883 12.0029C4.1883 12.9131 4.96976 13.7882 6.3922 14.4643C7.88489 15.1785 9.87806 15.5707 12 15.5707C14.122 15.5707 16.1151 15.1785 17.6078 14.4643C19.0273 13.7882 19.8117 12.9102 19.8117 12.0029C19.8117 11.0956 19.0303 10.2175 17.6078 9.5414C16.1151 8.82433 14.1249 8.43214 12 8.43214Z" fill="black"/>
</g>
<defs>
<clipPath id="clip0_230_129">
<rect width="24" height="24" fill="white"/>
</clipPath>
</defs>
</svg>
