<svg width="15" height="14" viewBox="0 0 15 14" fill="none" xmlns="http://www.w3.org/2000/svg">
<path d="M5.9391 5.17433C5.96448 5.17427 5.98988 5.17419 6.01527 5.1741C6.08394 5.1739 6.15261 5.17397 6.2213 5.17411C6.29341 5.17422 6.36541 5.17411 6.43756 5.17406C6.55859 5.17397 6.67962 5.17407 6.80079 5.17429C6.94043 5.17452 7.08008 5.17445 7.21958 5.1742C7.33988 5.17401 7.46003 5.17398 7.58019 5.1741C7.6519 5.17416 7.72347 5.17417 7.79518 5.17403C7.86253 5.1739 7.93003 5.17398 7.99738 5.17425C8.02196 5.1743 8.04669 5.17427 8.07127 5.17419C8.28336 5.17343 8.50316 5.19093 8.66637 5.34271C8.79103 5.47739 8.84631 5.62625 8.84645 5.80786C8.8466 5.81801 8.8466 5.82817 8.8466 5.83864C8.84674 5.8725 8.84674 5.90637 8.84674 5.94023C8.84674 5.96458 8.84674 5.98893 8.84689 6.0133C8.84689 6.07935 8.84704 6.14542 8.84704 6.21149C8.84704 6.25283 8.84704 6.29418 8.84704 6.33552C8.84718 6.47995 8.84732 6.62438 8.84732 6.76881C8.84718 6.90309 8.84747 7.03738 8.84762 7.17166C8.84776 7.2872 8.84791 7.40273 8.84791 7.51827C8.84791 7.58716 8.84791 7.65606 8.84805 7.72495C8.8482 7.78984 8.8482 7.85473 8.84805 7.91962C8.84805 7.9433 8.8482 7.96699 8.8482 7.99067C8.84907 8.2124 8.84878 8.47151 8.68455 8.64203C8.49719 8.8088 8.31231 8.85675 8.06633 8.85486C8.04131 8.85493 8.01614 8.85503 7.99112 8.85518C7.92363 8.85544 7.85599 8.85525 7.78849 8.85496C7.7175 8.85473 7.64652 8.85486 7.57553 8.85493C7.45625 8.855 7.33697 8.85477 7.21784 8.85436C7.08037 8.8539 6.94305 8.8539 6.80559 8.85414C6.67292 8.85438 6.54012 8.85427 6.40745 8.85403C6.35116 8.85393 6.29501 8.85394 6.23876 8.85406C6.1724 8.85416 6.10605 8.85398 6.0397 8.85359C6.01551 8.85349 5.99131 8.85349 5.96712 8.85359C5.7534 8.85442 5.55334 8.82795 5.38251 8.68567C5.19197 8.48309 5.17216 8.27179 5.17322 8.00665C5.17316 7.98149 5.17307 7.95634 5.17298 7.93117C5.17278 7.86346 5.17285 7.79576 5.173 7.72805C5.17312 7.65689 5.17301 7.58572 5.17294 7.51456C5.17285 7.39518 5.17297 7.2758 5.17317 7.1564C5.17341 7.01866 5.17333 6.88092 5.17309 6.74318C5.1729 6.62451 5.17287 6.50585 5.17298 6.38719C5.17304 6.31649 5.17306 6.24578 5.17291 6.17508C5.17278 6.10865 5.17287 6.04222 5.17313 5.97578C5.17319 5.95149 5.17317 5.92721 5.17307 5.90292C5.17226 5.67784 5.20758 5.5186 5.36523 5.3509C5.42296 5.29569 5.48374 5.2552 5.55707 5.22362C5.58286 5.21249 5.58286 5.21249 5.60916 5.20114C5.71564 5.1663 5.82836 5.1739 5.9391 5.17433Z" fill="#03152A"/>
<path d="M7.89687 0.324011C7.95665 0.375477 8.01513 0.428294 8.07331 0.481578C8.08612 0.493203 8.09906 0.504829 8.1123 0.516806C8.223 0.617214 8.32933 0.721191 8.43479 0.82708C8.45269 0.84507 8.47072 0.863056 8.48862 0.88104C8.52702 0.919395 8.56527 0.95777 8.60353 0.996165C8.66404 1.05691 8.7247 1.1176 8.78536 1.17828C8.91381 1.30694 9.04225 1.43565 9.1707 1.56437C9.30976 1.70374 9.44883 1.8431 9.58789 1.98238C9.64811 2.04267 9.70833 2.10301 9.76841 2.16338C9.8058 2.20087 9.84332 2.23832 9.88071 2.27577C9.89802 2.29311 9.91533 2.31047 9.93264 2.32784C9.9562 2.35157 9.97991 2.37526 10.0036 2.39893C10.0169 2.4122 10.03 2.42545 10.0436 2.43911C10.0788 2.47262 10.1152 2.50266 10.1535 2.53263C10.2239 2.59816 10.2239 2.59816 10.2407 2.649C10.2601 2.65883 10.2794 2.66849 10.2989 2.67809C10.3238 2.70041 10.3478 2.72356 10.3714 2.74725C10.3781 2.75395 10.3849 2.76066 10.3917 2.76755C10.4058 2.78168 10.4198 2.79582 10.4338 2.81C10.4553 2.83179 10.477 2.85346 10.4986 2.87512C10.6044 2.98153 10.6044 2.98153 10.6044 2.99811L10.549 2.99174C10.5238 2.98902 10.4986 2.98629 10.4735 2.98357C10.4572 2.98163 10.4572 2.98163 10.4406 2.97965C10.309 2.96554 10.1775 2.967 10.0454 2.96717C10.0182 2.96716 9.99097 2.96713 9.96377 2.9671C9.88944 2.96704 9.81496 2.96707 9.74063 2.96711C9.66018 2.96714 9.57989 2.9671 9.49945 2.96706C9.3422 2.967 9.18481 2.96701 9.02756 2.96706C8.8997 2.96709 8.77183 2.96709 8.64383 2.96707C8.62564 2.96707 8.60746 2.96707 8.5887 2.96707C8.55175 2.96706 8.51465 2.96706 8.47771 2.96706C8.14067 2.96701 7.80377 2.96706 7.46673 2.96713C7.15951 2.9672 6.85214 2.96719 6.54478 2.96711C6.19918 2.96704 5.8536 2.96701 5.50802 2.96706C5.47115 2.96706 5.43427 2.96707 5.39741 2.96707C5.37926 2.96707 5.36112 2.96707 5.34244 2.96707C5.21475 2.96709 5.08708 2.96707 4.95939 2.96704C4.80371 2.967 4.64804 2.967 4.49236 2.96709C4.41297 2.96711 4.33357 2.96713 4.25419 2.96709C4.18143 2.96704 4.10868 2.96707 4.03594 2.96714C4.0097 2.96716 3.98345 2.96716 3.95721 2.96711C3.77626 2.9669 3.59799 2.97347 3.41846 2.99811C3.49243 2.90771 3.57429 2.82629 3.6574 2.74439C3.71872 2.68369 3.77953 2.62247 3.84051 2.56141C3.85824 2.54365 3.87599 2.52591 3.89372 2.50815C3.90311 2.49873 3.91251 2.48932 3.9222 2.47962C4.13887 2.2627 4.35558 2.04582 4.57231 1.82896C4.69755 1.70364 4.82278 1.57831 4.94799 1.45295C5.05736 1.34343 5.16675 1.23393 5.27618 1.12447C5.33403 1.06659 5.39188 1.0087 5.44971 0.95078C5.50411 0.89628 5.55854 0.841814 5.613 0.787374C5.63293 0.767444 5.65285 0.747502 5.67275 0.727546C5.76736 0.632682 5.8617 0.539058 5.96408 0.452485C5.9826 0.435858 6.00109 0.419194 6.01953 0.402481C6.19883 0.245954 6.39858 0.106675 6.63147 0.0506396C6.65009 0.0459149 6.65009 0.0459149 6.66929 0.0410942C7.10641 -0.0663782 7.54877 0.0400541 7.89687 0.324011Z" fill="#F3972B"/>
<path d="M2.99677 3.40552C3.01803 3.44805 3.00618 3.47781 2.99859 3.52462C2.98531 3.61499 2.97813 3.70472 2.97444 3.79594C2.97384 3.81021 2.97325 3.82448 2.97264 3.83919C2.96463 4.04782 2.96248 4.2566 2.96001 4.46536C2.95957 4.50255 2.95912 4.53976 2.95866 4.57696C2.95163 5.15224 2.95119 5.72752 2.95163 6.30285C2.95173 6.45054 2.95175 6.59823 2.95176 6.74592C2.95181 7.009 2.95189 7.27209 2.95204 7.53518C2.95217 7.78978 2.95227 8.04439 2.95233 8.299C2.95233 8.31485 2.95234 8.33072 2.95234 8.34706C2.95236 8.42668 2.95239 8.50631 2.9524 8.58592C2.95255 9.23989 2.95281 9.89385 2.95313 10.5478C2.94186 10.5365 2.93058 10.5251 2.91897 10.5135C2.88345 10.4781 2.847 10.4447 2.80948 10.4114C2.74856 10.357 2.69027 10.3007 2.63311 10.2423L2.59891 10.2081C2.57262 10.1819 2.54642 10.1555 2.52031 10.129C2.50683 10.1154 2.49336 10.1018 2.47947 10.0878C2.47265 10.0808 2.46582 10.0739 2.45881 10.0668C2.42924 10.037 2.40025 10.0095 2.36633 9.98471C2.35835 9.97853 2.34218 9.96596 2.34218 9.96596L2.29854 9.92232C2.27365 9.89874 2.24949 9.87439 2.22581 9.84959C2.20195 9.82576 2.1781 9.80193 2.15424 9.77812C2.14007 9.76397 2.1259 9.74981 2.11173 9.73567C2.10426 9.7282 2.09678 9.72073 2.08907 9.71304C1.91627 9.5405 1.74351 9.36791 1.57078 9.1953C1.47099 9.0956 1.3712 8.9959 1.27137 8.89624C1.18409 8.80912 1.09686 8.72196 1.00964 8.63478C0.963555 8.58872 0.917443 8.54266 0.871316 8.49664C0.827895 8.4533 0.784503 8.40996 0.741155 8.36658C0.725299 8.35072 0.709443 8.3349 0.693558 8.31908C0.609611 8.2354 0.527977 8.15071 0.451142 8.06038C0.437891 8.04549 0.424625 8.03064 0.411315 8.01583C0.115048 7.67775 -0.0250207 7.29326 0.00366482 6.84217C0.0441039 6.4627 0.237266 6.15648 0.506986 5.89507C0.506986 5.89507 0.589334 5.81295 0.632973 5.76931C0.632973 5.76931 0.80478 5.59361 0.845161 5.55363C0.85434 5.54443 0.863505 5.53523 0.87296 5.52576C0.903754 5.49491 0.934666 5.46417 0.965563 5.43342C0.987644 5.41135 1.00971 5.38927 1.03178 5.36719C1.09177 5.3072 1.15183 5.2473 1.21192 5.18741C1.27467 5.12483 1.33735 5.06218 1.40005 4.99953C1.51878 4.88087 1.63759 4.76231 1.75644 4.64375C1.89172 4.50879 2.02693 4.37376 2.16211 4.23871C2.44024 3.96089 2.71847 3.68317 2.99677 3.40552Z" fill="#0ACBE5"/>
<path d="M10.9829 3.39087C11.0274 3.41075 11.058 3.43326 11.0923 3.4677C11.1022 3.47755 11.1121 3.4874 11.1223 3.49755C11.133 3.50835 11.1436 3.51914 11.1547 3.53027C11.1661 3.54166 11.1775 3.55303 11.1892 3.56476C11.2269 3.60243 11.2644 3.64021 11.3019 3.67799C11.3281 3.7042 11.3543 3.7304 11.3805 3.7566C11.4423 3.81858 11.5041 3.88063 11.5659 3.94272C11.636 4.01311 11.7062 4.08341 11.7763 4.15371C11.8963 4.27398 12.0163 4.39433 12.1362 4.51473C12.1881 4.56686 12.24 4.61895 12.2921 4.67096C12.3455 4.72434 12.3989 4.77784 12.4521 4.83137C12.4994 4.87879 12.5467 4.92616 12.5939 4.97354C12.6187 4.99842 12.6435 5.02334 12.6683 5.04826C12.7043 5.08448 12.7404 5.12063 12.7765 5.15678C12.7874 5.1678 12.7984 5.17881 12.8097 5.19018C12.8686 5.24902 12.9286 5.30506 12.9918 5.35938C13.0361 5.39842 13.0777 5.44001 13.1195 5.48186C13.1284 5.49081 13.1374 5.49975 13.1465 5.50896C13.1653 5.52771 13.1841 5.54648 13.2028 5.56526C13.2312 5.59368 13.2596 5.62203 13.2881 5.65037C13.3762 5.73846 13.4625 5.82681 13.5431 5.92195C13.5649 5.94563 13.5867 5.96927 13.6085 5.99286C13.6711 6.06244 13.7251 6.13438 13.7758 6.21288C13.7811 6.22078 13.7862 6.22866 13.7915 6.23679C13.8801 6.37297 13.9441 6.5093 13.994 6.66382C13.999 6.67876 14.0039 6.69371 14.009 6.7091C14.1028 7.03021 13.9998 7.38906 13.8472 7.67536C13.8157 7.73259 13.7844 7.78868 13.7467 7.84208C13.7368 7.85609 13.7368 7.85609 13.7268 7.87037C13.6491 7.97518 13.5576 8.06816 13.468 8.16271L12.0812 9.55856L11.5832 10.0657L11.452 10.197L11.2229 10.4159L11.0556 10.5623C11.0567 10.5487 11.0577 10.5351 11.0587 10.5212C11.0698 10.3641 11.0724 10.2079 11.0722 10.0504C11.0722 10.0229 11.0724 9.99546 11.0724 9.96797C11.0725 9.89307 11.0725 9.81817 11.0725 9.74325C11.0725 9.66223 11.0727 9.58122 11.0728 9.5002C11.073 9.32338 11.0731 9.14659 11.0731 8.96977C11.0731 8.85931 11.0732 8.74883 11.0732 8.63836C11.0734 8.33222 11.0735 8.02607 11.0737 7.71993C11.0737 7.70018 11.0737 7.68042 11.0737 7.66067C11.0737 7.64087 11.0737 7.62107 11.0737 7.60127C11.0737 7.56156 11.0737 7.52185 11.0737 7.48214C11.0737 7.47229 11.0737 7.46244 11.0737 7.45229C11.0737 7.13275 11.074 6.81319 11.0743 6.49365C11.0747 6.15529 11.0748 5.81694 11.0748 5.47857C11.0748 5.29433 11.075 5.11007 11.0753 4.92581C11.0754 4.76901 11.0756 4.61222 11.0754 4.45544C11.0754 4.37547 11.0754 4.29553 11.0756 4.21558C11.0757 4.14232 11.0757 4.06905 11.0756 3.9958C11.0756 3.96937 11.0756 3.94295 11.0757 3.91652C11.0766 3.73219 11.0654 3.55967 10.9829 3.39087Z" fill="#F23A2A"/>
<path d="M10.6192 11.0133C10.5979 11.0641 10.5708 11.0921 10.5292 11.1278C10.2908 11.3368 10.0685 11.5622 9.84493 11.7867C9.79882 11.8329 9.75271 11.8791 9.7066 11.9252C9.62572 12.0063 9.54484 12.0873 9.46411 12.1683C9.4388 12.1937 9.41349 12.2191 9.38803 12.2444C9.36097 12.2715 9.33406 12.2986 9.30715 12.3258C9.26133 12.3721 9.21551 12.4183 9.16954 12.4645C9.14976 12.4845 9.12998 12.5044 9.11034 12.5244C9.08168 12.5533 9.05302 12.5821 9.02437 12.6109C9.01564 12.62 9.00677 12.6289 8.9976 12.6382C8.97622 12.6596 8.95411 12.6802 8.93185 12.7007C8.93185 12.7007 8.83788 12.7982 8.80283 12.8333C8.79555 12.8405 8.78842 12.8477 8.78101 12.8552C8.75715 12.879 8.73329 12.9027 8.70944 12.9264C8.69285 12.943 8.67613 12.9597 8.65954 12.9763C8.62463 13.0112 8.58972 13.046 8.55466 13.0808C8.51015 13.1252 8.46564 13.1696 8.42113 13.214C8.3868 13.2484 8.35232 13.2828 8.31785 13.3171C8.30156 13.3335 8.28512 13.3498 8.26868 13.3662C7.95157 13.683 7.56551 13.9964 7.09537 14.0001C7.06787 14 7.06787 14 7.03994 13.9998C7.02103 13.9998 7.00212 13.9997 6.98278 13.9996C6.38303 13.9923 6.00162 13.6132 5.60185 13.2144C5.56699 13.1797 5.53196 13.1451 5.49693 13.1106C5.1828 12.7986 5.1828 12.7986 5.17692 12.674C5.17688 12.6572 5.17682 12.6404 5.17676 12.6231C5.17666 12.6041 5.17658 12.585 5.17647 12.5654C5.17646 12.5446 5.17644 12.5237 5.17643 12.5029C5.17639 12.4814 5.17634 12.46 5.17628 12.4386C5.1762 12.3935 5.17617 12.3485 5.17618 12.3035C5.17618 12.2462 5.17598 12.1888 5.17573 12.1315C5.17557 12.0872 5.17554 12.0428 5.17554 11.9985C5.17553 11.9774 5.17547 11.9563 5.17535 11.9352C5.17458 11.7759 5.18011 11.629 5.25798 11.4869C5.263 11.4777 5.26803 11.4685 5.27321 11.4589C5.39727 11.2425 5.59825 11.1234 5.83346 11.0569C5.89875 11.0478 5.96258 11.0471 6.02843 11.0478C6.04695 11.0477 6.06545 11.0476 6.08453 11.0475C6.13529 11.0473 6.18604 11.0474 6.23679 11.0477C6.29182 11.0479 6.34681 11.0476 6.40179 11.0475C6.49678 11.0472 6.59191 11.0472 6.68705 11.0474C6.82466 11.0477 6.96241 11.0475 7.10017 11.0473C7.32389 11.0469 7.54761 11.0467 7.77134 11.0468C7.98808 11.0469 8.20482 11.0469 8.42142 11.0468C8.4348 11.0468 8.44818 11.0468 8.462 11.0468C8.6079 11.0467 8.7538 11.0466 8.89971 11.0464C8.91905 11.0463 8.91905 11.0464 8.93869 11.0463C8.99004 11.0463 9.04139 11.0462 9.09274 11.0461C9.24271 11.0459 9.39268 11.0458 9.54266 11.046C9.63677 11.046 9.73089 11.046 9.825 11.0459C9.87912 11.0459 9.93337 11.0459 9.98763 11.046C10.0464 11.0461 10.1053 11.046 10.1642 11.0459C10.1812 11.046 10.1981 11.0461 10.2156 11.0462C10.3142 11.0458 10.4077 11.0368 10.5048 11.0195C10.5437 11.0137 10.58 11.0122 10.6192 11.0133Z" fill="#179987"/>
</svg>
