<svg width="25" height="24" viewBox="0 0 25 24" fill="none" xmlns="http://www.w3.org/2000/svg">
<path d="M16.9041 9.61074e-07C17.8662 -0.000449536 18.8013 0.157503 19.7235 0.415295C20.5629 0.649918 21.3433 1.01032 22.0696 1.47995C22.3374 1.65317 22.5703 1.87851 22.8201 2.079C23.173 2.36226 23.4611 2.70541 23.7194 3.06894C24.1097 3.61801 24.4094 4.21206 24.6116 4.85751C24.772 5.36969 24.878 5.88838 24.9344 6.41904C24.9498 6.56376 24.9587 6.70918 24.9681 6.85444C24.9807 7.05055 25.0055 7.24738 24.9989 7.44304C24.986 7.82301 24.9785 8.20556 24.9255 8.58108C24.8601 9.04516 24.7656 9.50675 24.6565 9.96314C24.4923 10.6513 24.2398 11.3131 23.9521 11.9589C23.6175 12.7099 23.2154 13.4269 22.7718 14.1224C22.3527 14.7793 21.8849 15.4006 21.3975 16.0081C21.174 16.2865 20.9286 16.5489 20.6816 16.8078C20.3319 17.1743 19.9804 17.54 19.6128 17.8888C19.3069 18.1791 18.9804 18.4486 18.6563 18.7197C18.2833 19.0317 17.9098 19.3439 17.5241 19.6404C16.9963 20.0463 16.4615 20.4438 15.9207 20.8328C15.5095 21.1287 15.0907 21.4156 14.6639 21.6891C14.0688 22.0706 13.4557 22.4224 12.8248 22.7456C11.917 23.2106 10.9808 23.6017 9.98298 23.8316C9.67145 23.9035 9.34786 23.9261 9.02919 23.9659C8.88273 23.9841 8.73309 24.0085 8.58752 23.9971C8.16473 23.9642 7.73631 23.9412 7.35324 23.7307C7.12788 23.6068 6.91684 23.4644 6.72321 23.2913C6.38023 22.9848 6.13336 22.6182 5.98209 22.1932C5.89766 21.956 5.84016 21.7079 5.8289 21.452C5.81349 21.1016 5.82438 20.7502 5.90219 20.4108C5.97854 20.0776 6.09055 19.7498 6.21598 19.4309C6.34867 19.0936 6.50899 18.7662 6.66917 18.4403C6.90868 17.9527 7.18708 17.4845 7.52273 17.0571C7.77802 16.732 8.05581 16.4216 8.38547 16.1592C8.64277 15.9546 8.90376 15.7598 9.19833 15.6119C9.83306 15.293 10.5067 15.1905 11.2079 15.2921C11.6054 15.3499 11.9851 15.4711 12.3181 15.7066C12.6728 15.9574 12.8529 16.2901 12.7894 16.7231C12.7685 16.8649 12.7159 17.0086 12.6482 17.1361C12.4865 17.4409 12.2872 17.7228 12.0514 17.9778C11.4025 18.6792 10.689 19.3181 10.0252 20.0048C9.54095 20.5058 9.06783 21.0196 8.71966 21.628C8.5964 21.8432 8.47706 22.0593 8.43227 22.3107C8.33178 22.8762 8.7144 23.2124 9.27242 23.1536C9.82209 23.0957 10.3312 22.8971 10.8326 22.6741C11.7836 22.251 12.6731 21.7223 13.5252 21.1354C14.1896 20.6777 14.8327 20.1889 15.4726 19.6979C15.8125 19.4372 16.1202 19.1361 16.4517 18.8641C17.0394 18.3819 17.5722 17.8426 18.0973 17.299C18.8129 16.5581 19.4713 15.7668 20.0348 14.9043C20.5261 14.1525 20.9257 13.3564 21.1762 12.4942C21.279 12.1408 21.377 11.7836 21.4393 11.4218C21.5015 11.0604 21.55 10.6936 21.5239 10.3233C21.4705 9.566 21.2985 8.84718 20.869 8.19994C20.5297 7.68884 20.0572 7.36876 19.4675 7.21975C19.2663 7.16889 19.0485 7.1765 18.8379 7.16773C18.281 7.14458 17.7531 7.29582 17.2296 7.45188C16.9341 7.54001 16.645 7.65478 16.3628 7.77939C15.9684 7.95361 15.5788 8.13988 15.1951 8.33599C14.473 8.70506 13.7721 9.11104 13.0899 9.54785C12.2788 10.0674 11.4644 10.5823 10.659 11.1104C9.73039 11.7192 8.8128 12.3434 7.92831 13.0147C7.40783 13.4097 6.87004 13.7834 6.33071 14.1535C5.83073 14.4965 5.29057 14.7726 4.72095 14.9841C3.9743 15.2611 3.20652 15.3473 2.42487 15.1414C2.15106 15.0694 1.8917 14.9553 1.65036 14.8037C1.34973 14.615 1.07203 14.4023 0.822003 14.1488C0.479913 13.8018 0.258992 13.3944 0.120606 12.936C0.0389847 12.6657 -0.00308824 12.3887 0.000176601 12.1092C0.00507387 11.702 0.0648205 11.3004 0.18427 10.9087C0.401383 10.1965 0.731676 9.53597 1.15201 8.92243C1.46899 8.45988 1.80899 8.01196 2.15452 7.56951C2.3348 7.33872 2.54393 7.12877 2.74972 6.91862C3.03637 6.6258 3.3256 6.33476 3.62587 6.05571C3.92126 5.78112 4.2226 5.51127 4.53794 5.25955C4.96799 4.91614 5.40367 4.57791 5.85539 4.26318C6.38684 3.89287 6.93362 3.54346 7.48157 3.19701C8.2322 2.7222 9.01659 2.3038 9.82181 1.92757C10.4099 1.6529 11.0117 1.40557 11.615 1.1646C12.0331 0.997615 12.4624 0.857018 12.89 0.714103C13.5499 0.493595 14.2235 0.321441 14.91 0.204419C15.2832 0.140792 15.6594 0.0910872 16.0359 0.0514006C16.3239 0.0210028 16.6146 0.0161759 16.9041 9.61074e-07Z" fill="#FF0008"/>
</svg>
