<svg width="39" height="24" viewBox="0 0 39 24" fill="none" xmlns="http://www.w3.org/2000/svg">
<rect width="39" height="24" fill="white"/>
<path d="M19.3479 1.72502C17.0191 1.90232 14.971 3.31719 13.9446 5.4577C13.2638 6.87962 13.1107 8.47766 13.5074 10.0193C13.788 11.1043 14.3598 12.1246 15.1496 12.9477C15.9916 13.8237 17.0585 14.4554 18.1997 14.7512C18.5198 14.8346 18.8109 14.8874 19.1565 14.9238C19.3525 14.945 20.2072 14.945 20.4206 14.9238C21.2823 14.8393 22.071 14.6092 22.8097 14.2276C23.8558 13.6863 24.7442 12.8667 25.3693 11.8628C25.8402 11.1066 26.1602 10.226 26.2878 9.33833C26.3412 8.97199 26.3516 8.80526 26.3516 8.35203C26.3516 7.7896 26.3226 7.48901 26.2194 6.97238C25.8761 5.25574 24.8787 3.7669 23.4244 2.80056C22.4827 2.1759 21.389 1.80486 20.2467 1.72385C20.0518 1.71093 19.5346 1.71093 19.3479 1.72502ZM20.0159 3.14342C20.0518 3.16103 20.0739 3.19508 20.0878 3.25614C20.0936 3.28197 20.1017 3.67531 20.1063 4.13089C20.1133 4.94929 20.1133 4.95985 20.1388 5.01387C20.1667 5.07492 20.2084 5.10663 20.2989 5.13598C20.3499 5.15242 20.4647 5.15477 21.2847 5.15359C21.9016 5.15242 22.2333 5.15594 22.2762 5.16416C22.3586 5.1806 22.4201 5.22287 22.4525 5.2851C22.4757 5.33089 22.478 5.35907 22.4885 5.65731C22.507 6.24792 22.4873 6.40995 22.369 6.64948C22.2646 6.86201 22.0988 7.02756 21.8727 7.14498C21.5595 7.30936 21.3995 7.33872 20.7918 7.34342C20.5459 7.34459 20.3418 7.35164 20.3058 7.35868C20.1899 7.38216 20.1307 7.43852 20.111 7.54537C20.104 7.57707 20.1029 8.19821 20.1075 9.03891C20.1168 10.617 20.1145 10.5595 20.1875 10.7649C20.3012 11.0773 20.5389 11.271 20.8683 11.318C20.9448 11.3297 20.9959 11.3285 21.1408 11.3121C21.2394 11.3015 21.4969 11.2828 21.7138 11.2698C21.9306 11.2569 22.1371 11.2428 22.1719 11.2393C22.2484 11.2311 22.311 11.2522 22.34 11.298C22.3574 11.325 22.3597 11.3837 22.3609 11.8886C22.3609 12.4193 22.3597 12.4557 22.3366 12.5509C22.2948 12.727 22.2229 12.862 22.1034 12.9876C21.9562 13.145 21.7683 13.2436 21.3658 13.3751C20.3151 13.7168 19.3595 13.6006 18.5094 13.0264C17.9446 12.646 17.6268 12.1587 17.5213 11.5105C17.4818 11.2734 17.4644 10.7884 17.3937 8.02913C17.3798 7.48549 17.3798 5.66083 17.3937 5.40486C17.4041 5.20526 17.4343 5.02796 17.4818 4.88236C17.599 4.52893 17.8228 4.19547 18.1359 3.91132C18.3864 3.68236 18.6497 3.50154 18.9594 3.34537C19.1554 3.24674 19.2748 3.2033 19.4523 3.1669C19.6633 3.12345 19.9486 3.11171 20.0159 3.14342Z" fill="#E32526"/>
<path d="M33.5374 15.8009C33.3728 15.808 33.3206 15.8244 33.3148 15.8702C33.3125 15.8808 33.3113 16.2413 33.3113 16.671C33.3113 17.1007 33.3067 17.8769 33.3009 18.397C33.2939 19.0628 33.2951 19.5923 33.3043 20.1876C33.3217 21.2326 33.3322 21.5004 33.3635 21.6542C33.4632 22.1591 33.7358 22.516 34.2101 22.7638C34.6647 23.0009 35.1344 23.035 35.6656 22.8694C35.9207 22.7896 36.0785 22.6686 36.1678 22.482C36.1944 22.4279 36.2246 22.3516 36.2339 22.3129C36.2617 22.2002 36.2768 21.9994 36.2721 21.7704L36.2687 21.5555L36.2373 21.5238C36.206 21.4921 36.2026 21.4921 36.0054 21.4827C35.6911 21.4686 35.5554 21.4534 35.4812 21.4264C35.3873 21.39 35.2817 21.3054 35.2226 21.2174C35.1286 21.0777 35.1344 21.1575 35.1251 19.9117C35.1078 17.6232 35.0892 16.7532 35.0567 16.5771C35.015 16.3528 34.9013 16.1685 34.7262 16.0428C34.5743 15.9324 34.3458 15.8456 34.1289 15.815C34.0083 15.7986 33.7242 15.7915 33.5374 15.8009Z" fill="#E32526"/>
<path d="M13.2917 15.8151C13.2708 15.8209 13.2441 15.8409 13.2337 15.8573C13.2139 15.8879 13.2128 16.0041 13.2116 17.9215C13.2105 20.0526 13.2221 21.3137 13.2418 21.4616C13.2487 21.5098 13.2638 21.5978 13.2766 21.6577C13.4134 22.3211 13.882 22.7767 14.5871 22.9317C14.6938 22.954 14.7413 22.9575 14.9698 22.9575C15.2574 22.9575 15.3432 22.9458 15.5648 22.8706C15.8895 22.7603 16.0565 22.6147 16.1122 22.3916C16.1446 22.2659 16.1644 22.0722 16.1725 21.8256C16.1783 21.6154 16.1771 21.5802 16.1597 21.5473C16.1342 21.4945 16.1006 21.4886 15.7898 21.4734C15.4604 21.4569 15.4024 21.4475 15.298 21.397C15.1693 21.3325 15.0985 21.2362 15.0475 21.053C15.0232 20.965 15.0232 20.9415 15.0197 20.1407C15.015 18.8421 14.993 16.8777 14.9814 16.7344C14.9675 16.5806 14.9269 16.4291 14.8678 16.3129C14.8109 16.2025 14.659 16.0487 14.5407 15.9818C14.4398 15.9243 14.2519 15.8585 14.1116 15.8315C13.9945 15.808 13.3543 15.7951 13.2917 15.8151Z" fill="#E32526"/>
<path d="M4.76982 16.2014C4.49728 16.2601 4.24446 16.3939 3.97423 16.6229C3.66342 16.8847 3.48018 17.1924 3.41059 17.5634C3.39204 17.6644 3.38972 17.7454 3.39204 18.3912C3.39668 19.5067 3.43959 21.4229 3.4651 21.6061C3.49874 21.8456 3.5776 22.0569 3.70633 22.253C3.79215 22.3845 3.97075 22.5571 4.1366 22.6699C4.66197 23.0245 5.22444 23.1172 5.84259 22.9517C6.33433 22.819 6.56048 22.6487 6.63702 22.3528C6.65326 22.2906 6.65674 22.2131 6.65906 21.9031C6.65906 21.673 6.65558 21.5192 6.64862 21.5039C6.64282 21.491 6.6231 21.4769 6.60687 21.4722C6.5686 21.4628 6.23227 21.4781 5.96089 21.5027C5.65123 21.5321 5.51902 21.5039 5.39029 21.383C5.30679 21.3055 5.2488 21.1928 5.22329 21.0624C5.18269 20.8534 5.16298 20.1924 5.18037 19.6182C5.19661 19.0922 5.19777 19.0746 5.23952 19.0264L5.27199 18.99L5.57237 18.9818C5.74749 18.9771 5.91914 18.9665 5.9864 18.956C6.38304 18.8914 6.62658 18.6847 6.71356 18.336C6.73328 18.2562 6.73908 18.1892 6.74372 17.9685C6.75068 17.6761 6.74372 17.6174 6.69617 17.5693C6.64282 17.5153 6.61383 17.5129 5.95857 17.5059C5.36941 17.4988 5.33578 17.4977 5.29171 17.4753C5.2604 17.4601 5.2372 17.4366 5.22213 17.4049C5.20009 17.3603 5.19893 17.338 5.20241 16.8824C5.20473 16.3399 5.19777 16.2436 5.15254 16.2049C5.12471 16.1802 5.11079 16.1779 4.99829 16.1791C4.92407 16.1791 4.83245 16.1885 4.76982 16.2014Z" fill="#E32526"/>
<path d="M9.73353 17.4765C9.70801 17.48 9.62683 17.4894 9.55377 17.5C8.62597 17.6245 7.96027 18.1293 7.53696 19.0323C7.38851 19.3493 7.32589 19.5548 7.27834 19.8883C7.25746 20.0362 7.26094 20.5387 7.28413 20.7313C7.39663 21.6472 7.80718 22.2836 8.55406 22.6992C8.95881 22.9235 9.32762 23.0186 9.8495 23.0315C10.5013 23.0479 10.964 22.9669 11.3491 22.772C11.617 22.6358 11.7979 22.4526 11.9139 22.199C11.9776 22.0581 12.0032 21.9454 12.009 21.7716C12.0182 21.525 11.9846 21.3912 11.9139 21.3912C11.8988 21.3912 11.828 21.4147 11.7585 21.444C11.61 21.5063 11.4082 21.5661 11.2354 21.6014C10.9988 21.6495 10.8341 21.6612 10.4178 21.6612C9.87618 21.6612 9.74281 21.6425 9.52477 21.5333C9.34385 21.4428 9.2128 21.3066 9.12466 21.12C9.08059 21.0248 9.07827 20.965 9.11886 20.938C9.14553 20.9203 9.16525 20.9203 9.33921 20.9333C9.58044 20.952 9.64887 20.9485 10.4247 20.8699C11.1102 20.7994 11.2296 20.7841 11.4326 20.7383C11.9034 20.6315 12.1644 20.4131 12.2722 20.0385C12.3267 19.8483 12.3372 19.6558 12.3082 19.4021C12.2479 18.8785 12.0762 18.4922 11.7585 18.1575C11.5822 17.9732 11.4233 17.8616 11.16 17.7325C10.7901 17.5528 10.4804 17.4812 10.0409 17.4753C9.89705 17.473 9.75904 17.4742 9.73353 17.4765ZM10.1974 18.8785C10.3841 18.9383 10.5488 19.0616 10.6173 19.192C10.7344 19.4139 10.6242 19.6358 10.3772 19.6757C10.2183 19.7016 9.18961 19.7626 9.10494 19.752C8.99361 19.7368 8.98549 19.7156 9.02608 19.5524C9.11538 19.1896 9.36357 18.9419 9.72193 18.8597C9.83095 18.835 10.0942 18.8444 10.1974 18.8785Z" fill="#E32526"/>
<path d="M19.0174 17.4765C18.4584 17.5258 18.0351 17.689 17.6361 18.0107C17.5051 18.1152 17.2592 18.3747 17.1525 18.518C16.8579 18.9137 16.6758 19.347 16.5993 19.8354C16.5738 19.9951 16.5633 20.4225 16.5807 20.5998C16.6422 21.2174 16.8196 21.7023 17.1235 22.0839C17.2186 22.2037 17.4239 22.4033 17.5445 22.4937C18.0873 22.9012 18.7309 23.0773 19.5242 23.035C19.9197 23.0139 20.1481 22.9751 20.4021 22.8859C20.808 22.7438 21.0667 22.5383 21.2128 22.2424C21.3102 22.0452 21.3508 21.8139 21.3276 21.5955C21.3125 21.4546 21.287 21.3877 21.2476 21.3818C21.2325 21.3794 21.1699 21.4017 21.1084 21.4299C20.7245 21.6072 20.3546 21.6683 19.7399 21.6577C19.4732 21.6542 19.392 21.6483 19.2725 21.6272C19.0498 21.5861 18.8701 21.5356 18.7622 21.4828C18.63 21.4194 18.5094 21.2972 18.4456 21.1657C18.3888 21.0471 18.3795 20.9826 18.4143 20.9509C18.4375 20.9297 18.4514 20.9274 18.5755 20.9333C18.8573 20.945 19.24 20.9379 19.3943 20.918C19.4778 20.9074 19.7039 20.8792 19.8988 20.8558C20.5401 20.7806 20.8973 20.7066 21.0864 20.6115C21.2858 20.5094 21.4378 20.3556 21.534 20.1524C21.6233 19.9657 21.65 19.8213 21.65 19.5184C21.65 18.9865 21.4726 18.5485 21.1107 18.181C20.7292 17.7959 20.2455 17.5681 19.6576 17.4988C19.5114 17.4812 19.1183 17.4671 19.0174 17.4765ZM19.4059 18.8491C19.5799 18.8796 19.7376 18.9618 19.8594 19.0851C19.9417 19.1661 19.9718 19.2307 19.973 19.3188C19.973 19.4855 19.8524 19.6241 19.6703 19.6651C19.5613 19.691 19.3549 19.7109 19.0812 19.7239C18.9281 19.7309 18.7506 19.7415 18.6868 19.7485C18.5558 19.7614 18.412 19.752 18.3656 19.7274C18.3204 19.7051 18.3146 19.6651 18.3424 19.5606C18.3981 19.3505 18.4734 19.2178 18.6057 19.091C18.8214 18.8879 19.116 18.7986 19.4059 18.8491Z" fill="#E32526"/>
<path d="M29.8378 17.4765C29.8158 17.4788 29.7474 17.487 29.6859 17.4929C29.1037 17.5575 28.5436 17.8358 28.1527 18.2561C27.712 18.7305 27.4708 19.2506 27.3826 19.9199C27.3537 20.1407 27.3537 20.6455 27.3826 20.8217C27.5508 21.8373 28.1655 22.5888 29.0794 22.8929C29.4064 23.0021 29.6685 23.0397 30.0872 23.0397C30.5488 23.0385 30.8341 23.0009 31.131 22.9011C31.436 22.7978 31.6366 22.6816 31.7932 22.516C31.9486 22.3516 32.053 22.1497 32.0947 21.9336C32.1272 21.761 32.1063 21.4675 32.0576 21.4134C32.0286 21.3806 31.9985 21.3853 31.8593 21.4428C31.6041 21.5485 31.32 21.6189 31.0196 21.6495C30.8201 21.6706 30.0362 21.6589 29.919 21.633C29.5978 21.5637 29.3763 21.417 29.2487 21.188C29.2 21.1011 29.1721 21.0142 29.1803 20.9778C29.193 20.9297 29.2359 20.9215 29.4296 20.9297C29.6952 20.9403 30.195 20.9062 31.0614 20.8205C31.5125 20.7759 31.8372 20.6796 32.0472 20.5281C32.2327 20.3943 32.3139 20.2428 32.3847 19.8999C32.5006 19.3352 32.3939 18.808 32.0773 18.3911C31.8442 18.0823 31.4429 17.7923 31.0382 17.6397C30.8909 17.5833 30.6589 17.5246 30.4873 17.4988C30.3609 17.48 29.9306 17.4647 29.8378 17.4765ZM30.2669 18.8667C30.4003 18.9054 30.4827 18.9547 30.587 19.0604C30.6926 19.1661 30.7413 19.2495 30.7506 19.341C30.7587 19.4221 30.7401 19.4866 30.6903 19.5442C30.6126 19.6358 30.5221 19.6639 30.151 19.7074C30.0246 19.7226 29.8807 19.7285 29.5757 19.7285C29.1895 19.7297 29.1663 19.7285 29.1431 19.7074C29.1107 19.678 29.1118 19.6311 29.1466 19.5266C29.2116 19.3363 29.3357 19.1438 29.4656 19.0346C29.5583 18.9571 29.723 18.8725 29.8262 18.8491C29.9318 18.8244 30.1521 18.8338 30.2669 18.8667Z" fill="#E32526"/>
<path d="M24.7233 17.5011C24.5262 17.5223 24.2258 17.6092 24.0089 17.7078C23.3595 18.0049 22.7993 18.5779 22.5558 19.1955C22.4502 19.4644 22.412 19.6581 22.3899 20.0597C22.3679 20.4624 22.398 20.8017 22.485 21.1117C22.7541 22.0816 23.5822 22.8201 24.5958 22.9939C24.7732 23.0244 25.0829 23.0303 25.2684 23.0056C25.8901 22.9258 26.3899 22.6323 26.5894 22.2283C26.6393 22.1274 26.681 21.9923 26.7007 21.8667C26.7309 21.68 26.7181 21.3512 26.6775 21.289C26.652 21.2503 26.6126 21.2538 26.4607 21.3137C26.1835 21.4217 25.9736 21.4616 25.6314 21.4698C25.3763 21.4769 25.1617 21.464 25.0017 21.4311C24.8904 21.4088 24.706 21.3172 24.6097 21.2374C24.4091 21.0718 24.2548 20.7818 24.1945 20.4577C24.1655 20.3039 24.1655 20.0456 24.1933 19.9305C24.2571 19.671 24.4137 19.4303 24.6225 19.2706C24.7755 19.1532 25.0075 19.064 25.2568 19.0252C25.4018 19.0029 25.6801 19.0029 25.8344 19.0264C26.071 19.0616 26.3899 19.1732 26.5326 19.2706C26.6369 19.3411 26.6578 19.3516 26.6903 19.3434C26.7506 19.3282 26.7529 19.3094 26.7413 18.99C26.7297 18.6542 26.71 18.5344 26.6358 18.3442C26.5697 18.1716 26.4885 18.046 26.3598 17.9145C26.1116 17.6644 25.846 17.554 25.3728 17.5047C25.2696 17.4941 24.8126 17.4918 24.7233 17.5011Z" fill="#E32526"/>
</svg>
